PLOT

A group of friends passing through are stalked and hunted down by a deformed killer with a
chainsaw in order to sustain his poor family who can only afford to eat what they kill.
 
http://www.imdb.com/title/tt0324216/


Encoded By .......: LKRG
Runtime ..........: 1h 38mn
File Size ........: 1.06 GB
Resolution .......: 704 x 396
IMDb URL .........: http://www.imdb.com/title/tt0324216/
Genre ............: Horror,Mystery,Thriller
Language .........: English
Subtitles ........: None
Video
ID : 0
Format : MPEG-4 Visual
Format profile : Advanced Simple@L5
Format settings, BVOP : Yes
Format settings, QPel : No
Format settings, GMC : No warppoints
Format settings, Matrix : Default (H.263)
Codec ID : XVID
Codec ID/Hint : XviD
Duration : 1h 38mn
Bit rate : 63.7 Kbps
Width : 704 pixels
Height : 396 pixels
Display aspect ratio : 16:9
Frame rate : 23.976 fps
Color space : YUV
Chroma subsampling : 4:2:0
Bit depth : 8 bits
Scan type : Progressive
Compression mode : Lossy
Bits/(Pixel*Frame) : 0.010
Stream size : 44.7 MiB (4%)
Writing library : XviD 1.2.1 (UTC 2008-12-04)
Audio
ID : 1
Format : AC-3
Format/Info : Audio Coding 3
Codec ID : 2000
Duration : 1h 38mn
Bit rate mode : Constant
Bit rate : 448 Kbps
Channel(s) : 6 channels
Sampling rate : 48.0 KHz
Bit depth : 16 bits
Compression mode : Lossy
Stream size : 315 MiB (29%)
Alignment : Aligned on interleaves
